<svg width="156" height="77" viewBox="0 0 156 77" fill="none" xmlns="http://www.w3.org/2000/svg">
<path opacity="0.9" d="M71.3311 57.5002C67.153 64.7446 60.704 70.4064 52.9842 73.6075C45.2644 76.8086 36.7052 77.3702 28.6341 75.2052C20.563 73.0402 13.431 68.2696 8.34412 61.6331C3.25729 54.9967 0.500001 46.8652 0.5 38.5C0.499999 30.1348 3.25728 22.0033 8.34411 15.3669C13.4309 8.73039 20.563 3.95978 28.6341 1.79479C36.7052 -0.370203 45.2644 0.191396 52.9842 3.3925C60.704 6.59361 67.153 12.2554 71.3311 19.4998" stroke="white"/>
<path opacity="0.9" d="M62.4733 62.5418C57.7235 67.2968 51.672 70.5349 45.084 71.8467C38.496 73.1586 31.6673 72.4853 25.4616 69.912C19.2558 67.3387 13.9515 62.9809 10.2195 57.3896C6.48761 51.7983 4.49567 45.2247 4.49567 38.5C4.49567 31.7753 6.48761 25.2017 10.2195 19.6104C13.9515 14.0191 19.2557 9.66134 25.4615 7.08802C31.6673 4.51471 38.496 3.84142 45.084 5.15328C51.672 6.46513 57.7235 9.70323 62.4733 14.4582" stroke="white"/>
<path opacity="0.9" d="M53.4416 64.4809C48.8861 67.1139 43.7185 68.5 38.4583 68.5C33.1981 68.5 28.0306 67.1139 23.475 64.4809C18.9195 61.8479 15.1365 58.0608 12.5063 53.5002C9.87605 48.9396 8.49133 43.7662 8.49133 38.5C8.49133 33.2338 9.87605 28.0604 12.5063 23.4998C15.1365 18.9392 18.9195 15.1521 23.475 12.5191C28.0306 9.88613 33.1981 8.5 38.4583 8.5C43.7185 8.5 48.8861 9.88613 53.4416 12.5191" stroke="white"/>
<path d="M47.9935 32.2102L43.3792 33.0284C43.1862 32.4375 42.8797 31.875 42.4597 31.3409C42.0511 30.8068 41.4948 30.3693 40.7911 30.0284C40.0873 29.6875 39.2075 29.517 38.1519 29.517C36.7103 29.517 35.507 29.8409 34.5421 30.4886C33.5773 31.125 33.0949 31.9488 33.0949 32.9602C33.0949 33.8352 33.4184 34.5397 34.0654 35.0738C34.7124 35.6079 35.7567 36.0454 37.1984 36.3863L41.3529 37.3409C43.7594 37.8977 45.5529 38.7556 46.7335 39.9147C47.914 41.0738 48.5043 42.5795 48.5043 44.4318C48.5043 46 48.0502 47.3977 47.1421 48.625C46.2454 49.8409 44.9911 50.7954 43.3792 51.4886C41.7786 52.1818 39.9227 52.5284 37.8113 52.5284C34.8827 52.5284 32.4932 51.9034 30.643 50.6534C28.7927 49.392 27.6576 47.6022 27.2376 45.284L32.1584 44.534C32.4649 45.8181 33.0949 46.7897 34.0484 47.4488C35.0019 48.0965 36.2448 48.4204 37.7773 48.4204C39.4459 48.4204 40.7797 48.0738 41.7786 47.3806C42.7775 46.6761 43.277 45.8181 43.277 44.8068C43.277 43.9886 42.9705 43.3011 42.3575 42.7443C41.7559 42.1875 40.8308 41.767 39.5821 41.4829L35.1551 40.5113C32.7146 39.9545 30.9097 39.0681 29.7405 37.8522C28.5827 36.6363 28.0038 35.0965 28.0038 33.2329C28.0038 31.6875 28.4351 30.3352 29.2978 29.1761C30.1605 28.017 31.3524 27.1136 32.8735 26.4659C34.3946 25.8068 36.137 25.4772 38.1008 25.4772C40.9273 25.4772 43.1521 26.0909 44.7754 27.3181C46.3986 28.534 47.4713 30.1647 47.9935 32.2102Z" fill="white"/>
<path d="M59.7151 52.5795C58.0579 52.5795 56.5595 52.2727 55.22 51.659C53.8806 51.034 52.8192 50.1306 52.036 48.9488C51.2641 47.767 50.8781 46.3181 50.8781 44.6022C50.8781 43.125 51.1619 41.909 51.7295 40.9545C52.2971 40 53.0633 39.2443 54.0281 38.6875C54.993 38.1306 56.0714 37.7102 57.2633 37.4261C58.4552 37.142 59.6697 36.9261 60.907 36.7784C62.4735 36.5965 63.7449 36.4488 64.7211 36.3352C65.6973 36.2102 66.4068 36.0113 66.8495 35.7386C67.2922 35.4659 67.5135 35.0227 67.5135 34.409V34.2897C67.5135 32.8011 67.0935 31.6477 66.2535 30.8295C65.4249 30.0113 64.1876 29.6022 62.5416 29.6022C60.8276 29.6022 59.4768 29.9829 58.4892 30.7443C57.513 31.4943 56.8376 32.3295 56.463 33.25L51.6784 32.159C52.246 30.5681 53.0746 29.284 54.1643 28.3068C55.2654 27.3181 56.5311 26.6022 57.9614 26.159C59.3916 25.7045 60.8957 25.4772 62.4735 25.4772C63.5178 25.4772 64.6246 25.6022 65.7938 25.8522C66.9743 26.0909 68.0754 26.534 69.097 27.1818C70.13 27.8295 70.9757 28.7556 71.634 29.9602C72.2924 31.1534 72.6216 32.7045 72.6216 34.6136V52H67.6497V48.4204H67.4454C67.1162 49.0795 66.6224 49.7272 65.9641 50.3636C65.3057 51 64.46 51.5284 63.427 51.9488C62.3941 52.3693 61.1568 52.5795 59.7151 52.5795ZM60.8219 48.4886C62.2295 48.4886 63.4327 48.2102 64.4316 47.6534C65.4419 47.0965 66.2081 46.3693 66.7303 45.4715C67.2638 44.5625 67.5305 43.5909 67.5305 42.5568V39.1818C67.3489 39.3636 66.997 39.534 66.4749 39.6931C65.9641 39.8409 65.3795 39.9715 64.7211 40.0852C64.0627 40.1875 63.4214 40.284 62.797 40.375C62.1727 40.4545 61.6506 40.5227 61.2306 40.5795C60.243 40.7045 59.3406 40.9147 58.5233 41.2102C57.7173 41.5056 57.0703 41.9318 56.5822 42.4886C56.1054 43.034 55.867 43.7613 55.867 44.6704C55.867 45.9318 56.3325 46.8863 57.2633 47.534C58.1941 48.1704 59.3803 48.4886 60.8219 48.4886Z" fill="white"/>
<path d="M88.6142 25.8181V29.909H74.3286V25.8181H88.6142ZM78.1596 19.5454H83.2507V44.3125C83.2507 45.3011 83.3983 46.0454 83.6934 46.5454C83.9886 47.034 84.3688 47.3693 84.8342 47.5511C85.311 47.7215 85.8275 47.8068 86.3837 47.8068C86.7923 47.8068 87.1499 47.7784 87.4564 47.7215C87.7629 47.6647 88.0013 47.6193 88.1715 47.5852L89.091 51.7954C88.7958 51.909 88.3758 52.0227 87.831 52.1363C87.2861 52.2613 86.605 52.3295 85.7877 52.3409C84.4483 52.3636 83.1996 52.125 82.0418 51.625C80.884 51.125 79.9475 50.3522 79.2323 49.3068C78.5172 48.2613 78.1596 46.9488 78.1596 45.3693V19.5454Z" fill="white"/>
<path d="M107.816 41.142V25.8181H112.925V52H107.919V47.4659H107.646C107.045 48.8636 106.08 50.0284 104.752 50.9602C103.435 51.8806 101.795 52.3409 99.8308 52.3409C98.1508 52.3409 96.6637 51.9715 95.3697 51.2329C94.087 50.4829 93.0767 49.375 92.3389 47.909C91.6124 46.4431 91.2492 44.6306 91.2492 42.4715V25.8181H96.3402V41.8579C96.3402 43.642 96.834 45.0625 97.8216 46.1193C98.8091 47.1761 100.092 47.7045 101.67 47.7045C102.623 47.7045 103.571 47.4659 104.513 46.9886C105.467 46.5113 106.256 45.7897 106.88 44.8238C107.516 43.8579 107.828 42.6306 107.816 41.142Z" fill="white"/>
<path d="M116.768 52V25.8181H121.689V29.9772H121.962C122.438 28.5681 123.278 27.4602 124.482 26.6534C125.696 25.8352 127.07 25.4261 128.602 25.4261C128.92 25.4261 129.295 25.4375 129.726 25.4602C130.169 25.4829 130.515 25.5113 130.765 25.5454V30.4204C130.56 30.3636 130.197 30.3011 129.675 30.2329C129.153 30.1534 128.631 30.1136 128.108 30.1136C126.905 30.1136 125.832 30.3693 124.89 30.8806C123.959 31.3806 123.222 32.0795 122.677 32.9772C122.132 33.8636 121.859 34.875 121.859 36.0113V52H116.768Z" fill="white"/>
<path d="M139.262 36.4545V52H134.171V25.8181H139.058V30.0795H139.382C139.983 28.6931 140.925 27.5795 142.208 26.7386C143.502 25.8977 145.131 25.4772 147.095 25.4772C148.877 25.4772 150.438 25.8522 151.777 26.6022C153.117 27.3409 154.155 28.4431 154.893 29.909C155.631 31.375 156 33.1875 156 35.3465V52H150.909V35.9602C150.909 34.0625 150.415 32.5795 149.428 31.5113C148.44 30.4318 147.084 29.892 145.358 29.892C144.178 29.892 143.128 30.1477 142.208 30.659C141.3 31.1704 140.579 31.9204 140.046 32.909C139.524 33.8863 139.262 35.0681 139.262 36.4545Z" fill="white"/>
</svg>
