<svg width="184" height="91" viewBox="0 0 184 91" fill="none" xmlns="http://www.w3.org/2000/svg">
<path opacity="0.9" d="M84.2116 68.0006C79.2737 76.5795 71.6517 83.2841 62.5282 87.0748C53.4047 90.8654 43.2892 91.5305 33.7506 88.9668C24.2119 86.4031 15.7828 80.7538 9.77085 72.8949C3.75885 65.0359 0.500001 55.4064 0.5 45.5C0.499999 35.5936 3.75884 25.9641 9.77084 18.1052C15.7828 10.2462 24.2119 4.59695 33.7505 2.03324C43.2892 -0.530462 53.4047 0.134555 62.5282 3.92521C71.6517 7.71588 79.2737 14.4205 84.2116 22.9994" stroke="#333333"/>
<path opacity="0.9" d="M73.7497 73.9779C68.1348 79.6101 60.9811 83.4454 53.1934 84.9992C45.4057 86.553 37.3335 85.7556 29.9976 82.7076C22.6616 79.6597 16.3912 74.498 11.9795 67.8752C7.56774 61.2523 5.21289 53.4658 5.21289 45.5003C5.21289 37.5347 7.56774 29.7482 11.9795 23.1254C16.3912 16.5025 22.6616 11.3409 29.9976 8.29291C37.3335 5.24496 45.4057 4.4475 53.1934 6.00131C60.9811 7.55512 68.1348 11.3905 73.7497 17.0226" stroke="#333333"/>
<path opacity="0.9" d="M63.0782 76.2832C57.6914 79.4027 51.581 81.045 45.3611 81.045C39.1412 81.045 33.0307 79.4027 27.6439 76.2832C22.2571 73.1636 17.7837 68.6765 14.6734 63.2729C11.5632 57.8692 9.92566 51.7394 9.92566 45.4996C9.92566 39.2597 11.5631 33.1299 14.6734 27.7263C17.7837 22.3226 22.2571 17.8356 27.6439 14.716C33.0307 11.5964 39.1411 9.9541 45.3611 9.9541C51.581 9.9541 57.6914 11.5964 63.0782 14.716" stroke="#333333"/>
<path d="M56.6077 38.0671L51.1651 39.034C50.9375 38.3357 50.576 37.6709 50.0807 37.0397C49.5987 36.4085 48.9426 35.8914 48.1125 35.4886C47.2824 35.0857 46.2448 34.8842 44.9996 34.8842C43.2993 34.8842 41.88 35.267 40.742 36.0325C39.604 36.7845 39.0349 37.7582 39.0349 38.9534C39.0349 39.9875 39.4165 40.8202 40.1797 41.4514C40.9428 42.0826 42.1746 42.5996 43.875 43.0025L48.7753 44.1306C51.6137 44.7887 53.7291 45.8026 55.1215 47.1724C56.514 48.5423 57.2102 50.3217 57.2102 52.5108C57.2102 54.3641 56.6746 56.0159 55.6035 57.4663C54.5458 58.9033 53.0664 60.0314 51.1651 60.8506C49.2773 61.6699 47.0883 62.0795 44.598 62.0795C41.1437 62.0795 38.3253 61.3408 36.143 59.8636C33.9606 58.3729 32.6217 56.2577 32.1263 53.518L37.9304 52.6316C38.2919 54.1492 39.0349 55.2974 40.1596 56.0764C41.2842 56.8419 42.7503 57.2246 44.5578 57.2246C46.5259 57.2246 48.0991 56.815 49.2773 55.9958C50.4555 55.1631 51.0446 54.1492 51.0446 52.954C51.0446 51.987 50.6832 51.1745 49.9602 50.5165C49.2506 49.8584 48.1594 49.3615 46.6866 49.0257L41.465 47.8775C38.5864 47.2194 36.4576 46.1719 35.0786 44.7349C33.7129 43.298 33.0301 41.4782 33.0301 39.2757C33.0301 37.4493 33.5389 35.8512 34.5564 34.4813C35.5739 33.1115 36.9798 32.0438 38.7739 31.2783C40.568 30.4994 42.6231 30.1099 44.9394 30.1099C48.2732 30.1099 50.8974 30.8351 52.812 32.2856C54.7266 33.7225 55.9918 35.6497 56.6077 38.0671Z" fill="#333333"/>
<path d="M70.4332 62.1399C68.4785 62.1399 66.7112 61.7773 65.1313 61.0521C63.5514 60.3135 62.2996 59.2458 61.3757 57.8491C60.4653 56.4524 60.0101 54.7401 60.0101 52.7122C60.0101 50.9663 60.3448 49.5294 61.0142 48.4013C61.6837 47.2732 62.5874 46.3801 63.7255 45.722C64.8635 45.064 66.1354 44.5671 67.5413 44.2313C68.9471 43.8956 70.3797 43.6404 71.8391 43.4658C73.6867 43.251 75.1862 43.0764 76.3377 42.9421C77.4891 42.7943 78.3259 42.5593 78.8481 42.237C79.3702 41.9147 79.6313 41.3909 79.6313 40.6657V40.5247C79.6313 38.7654 79.1359 37.4023 78.1452 36.4354C77.1678 35.4684 75.7084 34.9849 73.767 34.9849C71.7453 34.9849 70.1521 35.4348 68.9873 36.3346C67.8358 37.221 67.0392 38.2081 66.5974 39.2959L60.954 38.0066C61.6234 36.1265 62.6008 34.6089 63.8861 33.4539C65.1848 32.2856 66.6777 31.4395 68.3647 30.9157C70.0517 30.3785 71.8257 30.1099 73.6867 30.1099C74.9185 30.1099 76.2239 30.2577 77.6029 30.5531C78.9953 30.8351 80.2941 31.3589 81.499 32.1244C82.7174 32.8899 83.7149 33.9844 84.4914 35.408C85.268 36.8181 85.6562 38.6513 85.6562 40.9075V61.455H79.792V57.2246H79.551C79.1627 58.0035 78.5803 58.769 77.8037 59.5211C77.0272 60.2732 76.0297 60.8976 74.8114 61.3945C73.593 61.8914 72.1336 62.1399 70.4332 62.1399ZM71.7386 57.3052C73.3988 57.3052 74.8181 56.9762 75.9963 56.3181C77.1879 55.66 78.0916 54.8005 78.7075 53.7396C79.3368 52.6652 79.6514 51.517 79.6514 50.2949V46.3062C79.4372 46.5211 79.0221 46.7225 78.4062 46.9106C77.8037 47.0851 77.1142 47.2396 76.3377 47.3739C75.5611 47.4948 74.8047 47.6089 74.0683 47.7163C73.3319 47.8104 72.716 47.8909 72.2206 47.9581C71.0558 48.1058 69.9914 48.3543 69.0274 48.7034C68.0768 49.0526 67.3137 49.5562 66.7379 50.2143C66.1756 50.8589 65.8944 51.7184 65.8944 52.7928C65.8944 54.2835 66.4434 55.4116 67.5413 56.1771C68.6391 56.9292 70.0383 57.3052 71.7386 57.3052Z" fill="#333333"/>
<path d="M104.519 30.5128V35.3475H87.6696V30.5128H104.519ZM92.1883 23.0996H98.1931V52.3698C98.1931 53.5381 98.3672 54.4178 98.7153 55.0087C99.0634 55.5862 99.5119 55.9824 100.061 56.1972C100.623 56.3987 101.232 56.4994 101.888 56.4994C102.37 56.4994 102.792 56.4658 103.154 56.3987C103.515 56.3315 103.796 56.2778 103.997 56.2375L105.082 61.2132C104.734 61.3475 104.238 61.4818 103.595 61.6161C102.953 61.7639 102.15 61.8444 101.186 61.8579C99.6056 61.8847 98.1329 61.6027 96.7672 61.0118C95.4016 60.4209 94.297 59.5077 93.4535 58.2721C92.61 57.0366 92.1883 55.4855 92.1883 53.6187V23.0996Z" fill="#333333"/>
<path d="M127.168 48.6229V30.5128H133.193V61.455H127.289V56.0965H126.967C126.258 57.7484 125.12 59.1249 123.553 60.2262C122 61.314 120.065 61.8579 117.749 61.8579C115.768 61.8579 114.014 61.4214 112.487 60.5485C110.974 59.6621 109.783 58.3527 108.913 56.6203C108.056 54.8878 107.627 52.7458 107.627 50.1941V30.5128H113.632V49.4689C113.632 51.5774 114.214 53.2561 115.379 54.5051C116.544 55.7541 118.057 56.3785 119.918 56.3785C121.043 56.3785 122.161 56.0965 123.272 55.5325C124.397 54.9684 125.327 54.1156 126.063 52.9741C126.813 51.8326 127.181 50.3822 127.168 48.6229Z" fill="#333333"/>
<path d="M137.727 61.455V30.5128H143.531V35.4281H143.852C144.414 33.7628 145.405 32.4534 146.824 31.4999C148.257 30.533 149.877 30.0495 151.685 30.0495C152.059 30.0495 152.501 30.0629 153.01 30.0898C153.532 30.1167 153.941 30.1502 154.235 30.1905V35.9519C153.994 35.8847 153.566 35.8109 152.95 35.7303C152.334 35.6363 151.718 35.5893 151.102 35.5893C149.683 35.5893 148.418 35.8914 147.306 36.4958C146.209 37.0867 145.338 37.9126 144.696 38.9736C144.053 40.0211 143.732 41.2163 143.732 42.5593V61.455H137.727Z" fill="#333333"/>
<path d="M164.258 43.0831V61.455H158.253V30.5128H164.017V35.549H164.399C165.108 33.9106 166.22 32.5944 167.733 31.6006C169.259 30.6068 171.18 30.1099 173.496 30.1099C175.599 30.1099 177.439 30.5531 179.019 31.4395C180.599 32.3124 181.824 33.6151 182.695 35.3475C183.565 37.08 184 39.222 184 41.7737V61.455H177.995V42.4989C177.995 40.2561 177.413 38.5035 176.248 37.2411C175.083 35.9653 173.483 35.3274 171.448 35.3274C170.056 35.3274 168.817 35.6296 167.733 36.2339C166.662 36.8382 165.811 37.7246 165.182 38.893C164.566 40.048 164.258 41.4447 164.258 43.0831Z" fill="#333333"/>
</svg>
